# xmcd
# 
# Track frame offsets:
#     183
#     23058
#     42443
#     58663
#     67410
#     83060
#     99253
#     115110
#     134945
#     146870
#     160183
#     172048
#     186005
#     195690
#     209400
#     224730
#     239408
#     250428
# 
# Disc length: 3501
# 
# Revision: 2
# Processed by: cddbd v1.5.2PL0 Copyright (c) Steve Scherf et al.
# Submitted via: fre:ac v1.0.17
# 
DISCID=200dab12
DTITLE=B.B. King - B.B. Boogie
DYEAR=0
DGENRE=
TTITLE0=EVERYDAY I HAVE THE BLUES
TTITLE1=SWEET SIXTEEN
TTITLE2=THE OTHER NIGHT BLUES
TTITLE3=A NEW WAY OF DRIVING
TTITLE4=WALKIN' AND CRYIN'
TTITLE5=IT'S MY OWN FAULT BABY
TTITLE6=THE LETTER
TTITLE7=HOW BLUE CAN YOU GET
TTITLE8=PAYING THE COST TO BE THE BOSS
TTITLE9=ARMY OF THE LORD
TTITLE10=I NEVER HEARD A MAN
TTITLE11=SAVE A SEAT FOR ME
TTITLE12=SWING LOW SWEET CHARIOT - ROCK ME LORD
TTITLE13=SERVANT'S PRAYER
TTITLE14=TAKE MY HAND PRECIOUS LORD 
TTITLE15=B.B. BOOGIE
TTITLE16=CATFISH BLUES
TTITLE17=PLEASE LOVE ME
EXTD=
EXTT0=
EXTT1=
EXTT2=
EXTT3=
EXTT4=
EXTT5=
EXTT6=
EXTT7=
EXTT8=
EXTT9=
EXTT10=
EXTT11=
EXTT12=
EXTT13=
EXTT14=
EXTT15=
EXTT16=
EXTT17=
PLAYORDER=
